<?xml version='1.0' encoding='utf-8'?>
<svg xmlns="http://www.w3.org/2000/svg" enable-background="new 0 0 1543.438 1669.657" version="1.1" viewBox="0 0 1543.438 1669.657">
	<circle cx="1181.4" cy="455.24" r="38.778"/>
	<circle cx="765.68" cy="937.48" r="38.819"/>
	<circle cx="1003.1" cy="837.04" r="38.945"/>
	<circle cx="1092.5" cy="682.16" r="39.022"/>
	<circle cx="979.49" cy="754.77" r="40.441"/>
	<circle cx="857.02" cy="856.8" r="39.118"/>
	<circle cx="1158.1" cy="769.99" r="39.039"/>
	<circle cx="915.95" cy="913.52" r="38.825"/>
	<circle cx="832.13" cy="566" r="39.811"/>
	<circle cx="1159.3" cy="565.14" r="38.879"/>
	<circle cx="1099.1" cy="487.96" r="38.875"/>
	<circle cx="1083.1" cy="825.32" r="39.168"/>
	<circle cx="676.53" cy="1035" r="39.045"/>
	<circle cx="1227.9" cy="519.02" r="39.929"/>
	<circle cx="857.05" cy="966.75" r="39.727"/>
	<circle cx="771.4" cy="849.39" r="38.813"/>
	<circle cx="1083" cy="592.29" r="40.234"/>
	<circle cx="513.17" cy="445.43" r="26.09"/>
	<circle cx="662.93" cy="937.02" r="27.927"/>
	<circle cx="461.7" cy="152.36" r="25.904"/>
	<circle cx="1050.3" cy="747.07" r="27.603"/>
	<circle cx="534.2" cy="275.5" r="26.59"/>
	<circle cx="589.46" cy="322.8" r="25.917"/>
	<circle cx="703.67" cy="886.02" r="26.313"/>
	<circle cx="932.91" cy="827.63" r="27.293"/>
	<circle cx="813.33" cy="496.2" r="25.987"/>
	<circle cx="1022.4" cy="701.47" r="25.85"/>
	<circle cx="915.56" cy="528.99" r="26.025"/>
	<circle cx="601.08" cy="1101.5" r="25.901"/>
	<circle cx="1138.9" cy="633.74" r="25.915"/>
	<circle cx="741.65" cy="1021.6" r="26.869"/>
	<circle cx="1e3" cy="908.55" r="26.338"/>
	<circle cx="492.78" cy="205.83" r="26.121"/>
	<circle cx="703.34" cy="429.62" r="25.99"/>
	<circle cx="50.699" cy="1537" r="18.503"/>
	<circle cx="726.78" cy="546.99" r="19.459"/>
	<circle cx="589.05" cy="607.52" r="17.374"/>
	<circle cx="579.25" cy="411.66" r="17.782"/>
	<circle cx="938.46" cy="596.57" r="18.676"/>
	<circle cx="439.48" cy="301.08" r="19.624"/>
	<circle cx="558.16" cy="1133.6" r="17.927"/>
	<circle cx="277.82" cy="1570.2" r="17.507"/>
	<circle cx="76.532" cy="1569.8" r="18.081"/>
	<circle cx="455.02" cy="492.45" r="18.719"/>
	<circle cx="771.94" cy="553.88" r="17.926"/>
	<circle cx="1237.7" cy="436.88" r="18.516"/>
	<circle cx="1159.5" cy="688.36" r="17.998"/>
	<circle cx="1100.4" cy="880.76" r="18.903"/>
	<circle cx="481.15" cy="416.23" r="17.242"/>
	<circle cx="557.64" cy="1416.9" r="17.37"/>
	<circle cx="651.23" cy="380.68" r="17.925"/>
	<circle cx="706.91" cy="955.2" r="19.663"/>
	<circle cx="878.94" cy="758.55" r="17.352"/>
	<circle cx="446.91" cy="1384.4" r="17.691"/>
	<circle cx="636.05" cy="561.47" r="17.352"/>
	<circle cx="637.5" cy="981.35" r="17.773"/>
	<circle cx="427.97" cy="385.84" r="17.411"/>
	<circle cx="383.16" cy="1472.2" r="17.772"/>
	<circle cx="570.64" cy="471.71" r="17.514"/>
	<circle cx="820.83" cy="913.73" r="18.572"/>
	<circle cx="72.155" cy="1470.8" r="19.097"/>
	<circle cx="1054.1" cy="535.13" r="17.325"/>
	<circle cx="101.44" cy="1594.8" r="17.242"/>
	<circle cx="668.45" cy="1416.9" r="19.369"/>
	<circle cx="471.94" cy="323.97" r="18.844"/>
	<circle cx="338.34" cy="1520.3" r="18.01"/>
	<circle cx="859.92" cy="627.31" r="17.388"/>
	<circle cx="547.12" cy="614.21" r="17.881"/>
	<circle cx="877.48" cy="506.42" r="17.348"/>
	<circle cx="460.19" cy="1349.3" r="18.067"/>
	<circle cx="1149.6" cy="825.62" r="17.242"/>
	<circle cx="1099" cy="751.19" r="17.704"/>
	<circle cx="519.78" cy="1369.3" r="18.622"/>
	<circle cx="498.08" cy="514.35" r="19.208"/>
	<circle cx="512.28" cy="366.47" r="17.365"/>
	<circle cx="602.16" cy="365.8" r="17.969"/>
	<circle cx="415.03" cy="249.21" r="17.805"/>
	<circle cx="204.47" cy="1610.4" r="18.006"/>
	<circle cx="763.14" cy="507.45" r="17.571"/>
	<circle cx="649.76" cy="512.02" r="17.615"/>
	<circle cx="441.96" cy="85.6" r="18.551"/>
	<circle cx="498.21" cy="1322.8" r="17.501"/>
	<circle cx="674.71" cy="617.05" r="17.427"/>
	<circle cx="624.31" cy="440.77" r="18.097"/>
	<circle cx="693.48" cy="1380.1" r="12.669"/>
	<circle cx="611.56" cy="492.68" r="12.312"/>
	<circle cx="714.88" cy="990.6" r="14.055"/>
	<circle cx="394.67" cy="1445.3" r="11.5"/>
	<circle cx="1183.3" cy="713.64" r="13.517"/>
	<circle cx="571.76" cy="283.62" r="11.754"/>
	<circle cx="1147.8" cy="718.11" r="12.665"/>
	<circle cx="671.81" cy="567.8" r="12.327"/>
	<circle cx="887.94" cy="712.52" r="12.438"/>
	<circle cx="400.26" cy="221.01" r="13.478"/>
	<circle cx="676.62" cy="395.56" r="11.5"/>
	<circle cx="981.45" cy="681.8" r="14.312"/>
	<circle cx="768.71" cy="452.65" r="12.502"/>
	<circle cx="944.28" cy="957.72" r="12.1"/>
	<circle cx="763.88" cy="658.45" r="12.674"/>
	<circle cx="958.69" cy="873.41" r="11.874"/>
	<circle cx="1038.8" cy="658.92" r="11.808"/>
	<circle cx="732.69" cy="453.1" r="11.6"/>
	<circle cx="509.93" cy="590.62" r="12.076"/>
	<circle cx="1159.7" cy="409.88" r="11.5"/>
	<circle cx="579.11" cy="543.42" r="12.039"/>
	<circle cx="633.79" cy="621.96" r="16.383"/>
	<circle cx="1302.8" cy="518.75" r="12.393"/>
	<circle cx="409.81" cy="278.82" r="12.26"/>
	<circle cx="1274.4" cy="466.85" r="12.039"/>
	<circle cx="489.47" cy="1291.1" r="12.214"/>
	<circle cx="626.76" cy="1026.2" r="11.5"/>
	<circle cx="585.42" cy="666.51" r="11.616"/>
	<circle cx="752.89" cy="695.1" r="11.626"/>
	<circle cx="1250.9" cy="467.81" r="11.5"/>
	<circle cx="956.1" cy="686.66" r="11.5"/>
	<circle cx="882.09" cy="812.11" r="12.087"/>
	<circle cx="994.76" cy="617.14" r="11.851"/>
	<circle cx="628.18" cy="674.6" r="12.108"/>
	<circle cx="889.37" cy="675.27" r="12.376"/>
	<circle cx="717.51" cy="1341.4" r="11.589"/>
	<circle cx="1068" cy="882.34" r="12.244"/>
	<circle cx="1143.9" cy="510.93" r="11.5"/>
	<circle cx="602.09" cy="1029.5" r="11.653"/>
	<circle cx="412.56" cy="1424" r="12.862"/>
	<circle cx="1125.9" cy="854.21" r="12.465"/>
	<circle cx="1113.7" cy="434.66" r="11.621"/>
	<circle cx="796.37" cy="655.43" r="11.584"/>
	<circle cx="238.9" cy="1598.2" r="11.934"/>
	<circle cx="311.73" cy="1547.6" r="11.654"/>
	<circle cx="774.3" cy="764.03" r="11.545"/>
	<circle cx="159.83" cy="1611.5" r="13.084"/>
	<circle cx="443.62" cy="418.91" r="12.349"/>
	<circle cx="661.08" cy="419.72" r="12.08"/>
	<circle cx="965.52" cy="626.18" r="12.257"/>
	<circle cx="589.39" cy="1437" r="11.971"/>
	<circle cx="1208.9" cy="574.26" r="11.5"/>
	<circle cx="619.92" cy="1055.4" r="13.345"/>
	<circle cx="552.92" cy="670.25" r="11.679"/>
	<circle cx="935.26" cy="786.3" r="13.622"/>
	<circle cx="648.89" cy="1081.7" r="11.933"/>
	<circle cx="668.96" cy="475.56" r="13.612"/>
	<circle cx="743.05" cy="591.85" r="12.503"/>
	<circle cx="533.62" cy="1163.7" r="13.56"/>
	<circle cx="505.29" cy="1232.9" r="11.887"/>
	<circle cx="1287.1" cy="491.44" r="11.73"/>
	<circle cx="1033.1" cy="791.08" r="15.339"/>
	<circle cx="713.41" cy="485" r="13.077"/>
	<circle cx="1204.9" cy="410" r="12.192"/>
	<circle cx="805.84" cy="968.09" r="11.5"/>
	<circle cx="792.28" cy="1024.1" r="11.715"/>
	<circle cx="749.82" cy="621.62" r="11.929"/>
	<circle cx="673.26" cy="979.78" r="12.322"/>
	<circle cx="674.7" cy="529.08" r="11.585"/>
	<circle cx="534.19" cy="314.22" r="9.433"/>
	<circle cx="610.04" cy="666.7" r="7.671"/>
	<circle cx="1175.4" cy="638.09" r="9.944"/>
	<circle cx="610.8" cy="1440.1" r="9.657"/>
	<circle cx="794.32" cy="997.84" r="10.243"/>
	<circle cx="748.82" cy="434.91" r="10.851"/>
	<circle cx="1180.9" cy="659.07" r="9.323"/>
	<circle cx="564.45" cy="1068.2" r="7.856"/>
	<circle cx="1282.2" cy="511.4" r="8.412"/>
	<circle cx="781.56" cy="472.31" r="8.472"/>
	<circle cx="1052.1" cy="499.2" r="9.127"/>
	<circle cx="920" cy="700.17" r="7.722"/>
	<circle cx="928.14" cy="624.59" r="7.742"/>
	<circle cx="384.66" cy="203.11" r="10.262"/>
	<circle cx="906.13" cy="729.14" r="8.018"/>
	<circle cx="51.268" cy="1504.5" r="7.754"/>
	<circle cx="609.41" cy="1419.5" r="10.004"/>
	<circle cx="793.91" cy="596.55" r="8.133"/>
	<circle cx="1057.2" cy="643.27" r="9.774"/>
	<circle cx="915.48" cy="678.66" r="8.547"/>
	<circle cx="1267.2" cy="447.73" r="8.392"/>
	<circle cx="696.33" cy="581.43" r="9.393"/>
	<circle cx="409.47" cy="1457.8" r="7.875"/>
	<circle cx="692.48" cy="712.59" r="8.528"/>
	<circle cx="928.99" cy="717.71" r="11.226"/>
	<circle cx="450.03" cy="188.52" r="10.693"/>
	<circle cx="359.72" cy="1482.9" r="7.77"/>
	<circle cx="624.3" cy="379.8" r="8.221"/>
	<circle cx="639.25" cy="355.76" r="8.223"/>
	<circle cx="957.22" cy="540.17" r="8.367"/>
	<circle cx="591.91" cy="488.72" r="7.735"/>
	<circle cx="905.65" cy="965.04" r="8.525"/>
	<circle cx="829.51" cy="786.5" r="10.384"/>
	<circle cx="1049.9" cy="862.1" r="8.83"/>
	<circle cx="445.83" cy="53.925" r="12.87"/>
	<circle cx="726.75" cy="657.41" r="9.559"/>
	<circle cx="780.05" cy="623.46" r="9.841"/>
	<circle cx="1141" cy="417.8" r="8.809"/>
	<circle cx="729.99" cy="693.41" r="9.734"/>
	<circle cx="1326.9" cy="529.42" r="12.68"/>
	<circle cx="1352.2" cy="535.94" r="11.804"/>
	<circle cx="1375" cy="542.24" r="10.134"/>
	<circle cx="1394.5" cy="547.91" r="8.632"/>
	<circle cx="1411.9" cy="552.25" r="7.464"/>
	<circle cx="117.5" cy="1615.1" r="8.483"/>
	<circle cx="626.02" cy="718.34" r="8.021"/>
	<circle cx="1199.3" cy="736.63" r="8.058"/>
	<circle cx="1241.4" cy="565.7" r="8.652"/>
	<circle cx="1002.8" cy="576.17" r="9.058"/>
	<circle cx="833.84" cy="615.74" r="9.96"/>
	<circle cx="812.8" cy="626.26" r="9.96"/>
	<circle cx="837.34" cy="643.28" r="8.208"/>
	<circle cx="51.634" cy="1488.8" r="7.963"/>
	<circle cx="705.66" cy="926.89" r="8.679"/>
	<circle cx="813.43" cy="737.25" r="8.479"/>
	<circle cx="757.28" cy="732.71" r="10.169"/>
	<circle cx="907.79" cy="981.1" r="7.671"/>
	<circle cx="929.32" cy="978.34" r="7.671"/>
	<circle cx="963.87" cy="932.78" r="7.671"/>
	<circle cx="1187" cy="681.89" r="8.437"/>
	<circle cx="605.61" cy="419.31" r="9.664"/>
	<circle cx="890.91" cy="560.04" r="12.104"/>
	<circle cx="264.61" cy="1596.8" r="7.95"/>
	<circle cx="1015" cy="654.04" r="8.05"/>
	<circle cx="93.071" cy="1447.4" r="12.3"/>
	<circle cx="621.95" cy="396.47" r="8.105"/>
	<circle cx="1132.8" cy="437.35" r="7.671"/>
	<circle cx="598.91" cy="1054.6" r="7.671"/>
	<circle cx="437.68" cy="113.82" r="8.825"/>
	<circle cx="614.48" cy="995.22" r="9.105"/>
	<circle cx="742.8" cy="775.04" r="10.648"/>
	<circle cx="837.5" cy="736.67" r="10.267"/>
	<circle cx="1013.3" cy="940.24" r="8.003"/>
	<circle cx="658.49" cy="704.79" r="8.264"/>
	<circle cx="619.49" cy="602.6" r="7.686"/>
	<circle cx="1015.1" cy="591.95" r="7.708"/>
	<circle cx="668.92" cy="671.77" r="8.324"/>
	<circle cx="996.26" cy="555.71" r="11.885"/>
	<circle cx="549.56" cy="1390" r="8.165"/>
	<circle cx="531.78" cy="1398.2" r="8.165"/>
	<circle cx="469.18" cy="1319.6" r="8.165"/>
	<circle cx="776.98" cy="993.35" r="7.671"/>
	<circle cx="1110" cy="543.94" r="10.69"/>
	<circle cx="504.22" cy="612.9" r="9.044"/>
	<circle cx="690.7" cy="518.37" r="7.671"/>
	<circle cx="967.58" cy="603.92" r="10.104"/>
	<circle cx="814.45" cy="1017.6" r="9.707"/>
	<circle cx="464.84" cy="516.94" r="7.671"/>
	<circle cx="371.02" cy="1495.5" r="8.482"/>
	<circle cx="468.95" cy="297.03" r="8.26"/>
	<circle cx="520.46" cy="541.65" r="11.533"/>
	<circle cx="428.78" cy="1404.2" r="9.174"/>
	<circle cx="533.34" cy="1186.6" r="9.337"/>
	<circle cx="1029.2" cy="882.81" r="7.872"/>
	<circle cx="607.14" cy="628.19" r="7.703"/>
	<circle cx="499.97" cy="274.14" r="7.671"/>
	<circle cx="826.12" cy="702.92" r="12.17"/>
	<circle cx="554.72" cy="381.33" r="8.599"/>
	<circle cx="560.74" cy="553.74" r="7.704"/>
	<circle cx="857.67" cy="696.07" r="8.565"/>
	<circle cx="804.49" cy="750.84" r="7.787"/>
	<circle cx="1175.9" cy="513.24" r="8.306"/>
	<circle cx="763.09" cy="598.85" r="8.726"/>
	<circle cx="677.08" cy="755.98" r="8.712"/>
	<circle cx="904.28" cy="857.57" r="8.147"/>
	<circle cx="1085.3" cy="544.44" r="7.671"/>
	<circle cx="812.9" cy="873.46" r="8.045"/>
	<circle cx="594.94" cy="1011.5" r="7.671"/>
	<circle cx="959.84" cy="804.08" r="7.688"/>
	<circle cx="416.06" cy="351.46" r="8.801"/>
	<circle cx="710.93" cy="709.18" r="8.022"/>
	<circle cx="626.95" cy="1417.3" r="7.671"/>
	<circle cx="1034.3" cy="909.04" r="7.912"/>
	<circle cx="1129.9" cy="875.98" r="7.912"/>
	<circle cx="1089.7" cy="774.79" r="7.671"/>
	<circle cx="456.65" cy="398.3" r="12.031"/>
	<circle cx="963.7" cy="906.61" r="9.43"/>
	<circle cx="1082.2" cy="905.38" r="10.508"/>
	<circle cx="566.44" cy="1091.9" r="10.038"/>
	<circle cx="941.3" cy="860.31" r="6.445"/>
	<circle cx="693.4" cy="992.82" r="5.185"/>
	<circle cx="859.38" cy="901.72" r="5.866"/>
	<circle cx="647.58" cy="717.44" r="8.253"/>
	<circle cx="547.35" cy="586.9" r="7.138"/>
	<circle cx="1256.1" cy="483.87" r="5.116"/>
	<circle cx="641.31" cy="467.07" r="6.842"/>
	<circle cx="875.74" cy="591.81" r="8.333"/>
	<circle cx="1112.4" cy="779.08" r="5.789"/>
	<circle cx="917.55" cy="861.41" r="5.663"/>
	<circle cx="533.52" cy="665.91" r="8.2"/>
	<circle cx="788.74" cy="635.85" r="5.301"/>
	<circle cx="764.96" cy="634.85" r="5.301"/>
	<circle cx="735.41" cy="635.6" r="5.301"/>
	<circle cx="695.85" cy="631.35" r="5.301"/>
	<circle cx="652.03" cy="603.3" r="5.301"/>
	<circle cx="655.79" cy="632.85" r="5.301"/>
	<circle cx="575.17" cy="629.09" r="5.301"/>
	<circle cx="592.69" cy="630.34" r="5.301"/>
	<circle cx="611.47" cy="614.57" r="5.301"/>
	<circle cx="522.34" cy="621.08" r="5.301"/>
	<circle cx="521.08" cy="608.06" r="5.301"/>
	<circle cx="569.91" cy="526.94" r="5.301"/>
	<circle cx="481.02" cy="493.14" r="5.301"/>
	<circle cx="432.95" cy="482.87" r="5.301"/>
	<circle cx="427.69" cy="470.6" r="5.301"/>
	<circle cx="481.77" cy="439.05" r="5.301"/>
	<circle cx="468.75" cy="444.06" r="5.301"/>
	<circle cx="545.12" cy="473.86" r="5.301"/>
	<circle cx="481.52" cy="452.57" r="5.301"/>
	<circle cx="396.64" cy="345.41" r="5.301"/>
	<circle cx="397.9" cy="360.93" r="5.301"/>
	<circle cx="426.44" cy="410.51" r="5.301"/>
	<circle cx="438.46" cy="467.85" r="4.3"/>
	<circle cx="653.79" cy="578.52" r="5.301"/>
	<circle cx="712.63" cy="591.54" r="5.301"/>
	<circle cx="746.68" cy="567.25" r="5.301"/>
	<circle cx="743.92" cy="523.43" r="5.301"/>
	<circle cx="791.25" cy="539.2" r="5.301"/>
	<circle cx="813.6" cy="837.21" r="5.116"/>
	<circle cx="1226.3" cy="465.11" r="7.17"/>
	<circle cx="690.7" cy="568.06" r="5.116"/>
	<circle cx="499.9" cy="575.66" r="5.138"/>
	<circle cx="569.62" cy="672.03" r="5.116"/>
	<circle cx="781" cy="599.55" r="5.116"/>
	<circle cx="716.88" cy="626.98" r="11.124"/>
	<circle cx="707.37" cy="611.7" r="6.444"/>
	<circle cx="1180.8" cy="821.79" r="5.672"/>
	<circle cx="692.32" cy="490.38" r="5.821"/>
	<circle cx="440.99" cy="1362.2" r="5.116"/>
	<circle cx="793.15" cy="465.22" r="5.116"/>
	<circle cx="870.35" cy="923.24" r="5.454"/>
	<circle cx="314.31" cy="1526.4" r="6.792"/>
	<circle cx="306.55" cy="1573.2" r="6.792"/>
	<circle cx="329.33" cy="1556.5" r="6.792"/>
	<circle cx="531.61" cy="523.98" r="8.631"/>
	<circle cx="913.71" cy="790.45" r="8.32"/>
	<circle cx="692.64" cy="698.95" r="5.116"/>
	<circle cx="868.13" cy="605.12" r="6.268"/>
	<circle cx="589.05" cy="1409.7" r="9.176"/>
	<circle cx="643.88" cy="704.59" r="5.116"/>
	<circle cx="786.55" cy="982.26" r="6.981"/>
	<circle cx="852.38" cy="606.1" r="5.116"/>
	<circle cx="668.37" cy="714.32" r="5.465"/>
	<circle cx="549.17" cy="547.74" r="5.333"/>
	<circle cx="417.46" cy="132.12" r="8.088"/>
	<circle cx="875.74" cy="532.25" r="8.101"/>
	<circle cx="714.47" cy="734.96" r="7.027"/>
	<circle cx="729.74" cy="743.22" r="7.027"/>
	<circle cx="530.88" cy="478.22" r="5.648"/>
	<circle cx="413.46" cy="368.61" r="5.116"/>
	<circle cx="900.65" cy="811.45" r="6.476"/>
	<circle cx="709.84" cy="693.13" r="5.889"/>
	<circle cx="685.22" cy="1395.8" r="5.116"/>
	<circle cx="58.849" cy="1514.9" r="5.116"/>
	<circle cx="542.36" cy="532.54" r="5.116"/>
	<circle cx="720.89" cy="1305.6" r="5.753"/>
	<circle cx="709.62" cy="1289.4" r="4.751"/>
	<circle cx="817.19" cy="944.31" r="6.012"/>
	<circle cx="1237.1" cy="413.26" r="5.116"/>
	<circle cx="1076" cy="723.11" r="5.116"/>
	<circle cx="770.31" cy="691.38" r="6.184"/>
	<circle cx="624.76" cy="955.3" r="8.612"/>
	<circle cx="1121.1" cy="797" r="6.751"/>
	<circle cx="641.78" cy="659.13" r="7.552"/>
	<circle cx="123.84" cy="1430.9" r="9.134"/>
	<circle cx="430.04" cy="136.15" r="5.116"/>
	<circle cx="457.49" cy="219.4" r="10.17"/>
	<circle cx="737.62" cy="511.38" r="6.002"/>
	<circle cx="616.06" cy="966.69" r="5.722"/>
	<circle cx="493.03" cy="593.77" r="5.116"/>
	<circle cx="627.64" cy="336.33" r="5.689"/>
	<circle cx="482.65" cy="235.38" r="5.116"/>
	<circle cx="760.94" cy="776.78" r="6.911"/>
	<circle cx="501.87" cy="1345.1" r="5.116"/>
	<circle cx="816.24" cy="888.99" r="6.592"/>
	<circle cx="679.07" cy="709.28" r="5.293"/>
	<circle cx="1185.6" cy="404.98" r="7.753"/>
	<circle cx="512.93" cy="333.47" r="6.574"/>
	<circle cx="1215.3" cy="424.57" r="5.713"/>
	<circle cx="481.28" cy="531.94" r="5.116"/>
	<circle cx="987.13" cy="942.2" r="9.704"/>
	<circle cx="373.47" cy="220.99" r="5.939"/>
	<circle cx="420.88" cy="1445.7" r="6.088"/>
	<circle cx="842.08" cy="775.04" r="6.624"/>
	<circle cx="568.14" cy="592.35" r="5.977"/>
	<circle cx="1051.3" cy="903.88" r="9.886"/>
	<circle cx="954.66" cy="524.14" r="7.749"/>
	<circle cx="414.34" cy="108.69" r="6.144"/>
	<circle cx="496.22" cy="259.77" r="7.18"/>
	<circle cx="848.65" cy="497.99" r="9.38"/>
	<circle cx="719.49" cy="610.95" r="5.116"/>
	<circle cx="742.34" cy="498.38" r="5.116"/>
	<circle cx="643.25" cy="402.53" r="5.332"/>
	<circle cx="1278.8" cy="537.28" r="6.094"/>
	<circle cx="572.37" cy="1436.4" r="4.774"/>
	<circle cx="704.66" cy="1354.2" r="6.547"/>
	<circle cx="898.47" cy="873.2" r="5.116"/>
	<circle cx="972.97" cy="533.59" r="7.665"/>
	<circle cx="874.79" cy="646.12" r="6.587"/>
	<circle cx="604.9" cy="683.79" r="5.563"/>
	<circle cx="777.7" cy="1012.8" r="6.697"/>
	<circle cx="686.99" cy="469.46" r="5.425"/>
	<circle cx="967.7" cy="710.76" r="5.116"/>
	<circle cx="456.1" cy="104.57" r="5.116"/>
	<circle cx="852.35" cy="671.07" r="9.468"/>
	<circle cx="830.63" cy="1014.8" r="6.294"/>
	<circle cx="716.15" cy="673.92" r="5.326"/>
	<circle cx="550.94" cy="1096.8" r="5.596"/>
	<circle cx="811.22" cy="676.05" r="7.035"/>
	<circle cx="801.98" cy="532.15" r="5.519"/>
	<circle cx="842.54" cy="481.57" r="5.519"/>
	<circle cx="1049.3" cy="876.03" r="5.116"/>
	<circle cx="1274.2" cy="527.05" r="5.116"/>
	<circle cx="520.97" cy="225.18" r="7.687"/>
	<circle cx="810.86" cy="986.66" r="6.376"/>
	<circle cx="582.15" cy="353.12" r="5.267"/>
	<circle cx="1131.2" cy="600.8" r="6.528"/>
	<circle cx="654.7" cy="660.27" r="5.423"/>
	<circle cx="531.56" cy="595.47" r="6.473"/>
	<circle cx="278.54" cy="1596.2" r="5.993"/>
	<circle cx="942.19" cy="877.46" r="5.116"/>
	<circle cx="625.4" cy="1433.7" r="6.26"/>
	<circle cx="641.18" cy="1430" r="6.26"/>
	<circle cx="782.3" cy="714.72" r="6.976"/>
	<circle cx="840.71" cy="691.95" r="6.083"/>
	<circle cx="238.54" cy="1579.3" r="6.885"/>
	<circle cx="231.03" cy="1617.2" r="6.885"/>
	<circle cx="695.07" cy="674.78" r="7.016"/>
	<circle cx="489.29" cy="353.27" r="9.141"/>
	<circle cx="875.7" cy="545.47" r="5.116"/>
	<circle cx="430.54" cy="1423.5" r="5.116"/>
	<circle cx="900.92" cy="832.82" r="5.116"/>
	<circle cx="694.33" cy="387.1" r="6.598"/>
	<circle cx="475.47" cy="248.67" r="6.9"/>
	<circle cx="103.07" cy="1432.7" r="5.483"/>
	<circle cx="572.35" cy="559.18" r="5.116"/>
	<circle cx="896.38" cy="798.18" r="7.246"/>
	<circle cx="707.14" cy="673.6" r="3.686"/>
	<circle cx="978.34" cy="802.32" r="3.727"/>
	<circle cx="596.43" cy="680.81" r="3.413"/>
	<circle cx="820.24" cy="830.41" r="4.391"/>
	<circle cx="537.61" cy="326.6" r="3.413"/>
	<circle cx="927.52" cy="865.29" r="5.041"/>
	<circle cx="487.41" cy="1275.6" r="3.413"/>
	<circle cx="999.63" cy="678.66" r="4.137"/>
	<circle cx="74.753" cy="1505.6" r="5.334"/>
	<circle cx="523.33" cy="306.37" r="3.969"/>
	<circle cx="766.32" cy="470.81" r="5.221"/>
	<circle cx="695.96" cy="398.56" r="4.975"/>
	<circle cx="430.67" cy="267.77" r="4.876"/>
	<circle cx="580.04" cy="1419.9" r="4.466"/>
	<circle cx="728.46" cy="513.58" r="3.413"/>
	<circle cx="1141.8" cy="672.43" r="5.84"/>
	<circle cx="656.98" cy="759.59" r="4.246"/>
	<circle cx="693.11" cy="654.9" r="3.557"/>
	<circle cx="673.98" cy="1083.9" r="5.127"/>
	<circle cx="838.96" cy="722.91" r="3.571"/>
	<circle cx="526.06" cy="506.77" r="5.256"/>
	<circle cx="1050.4" cy="783.85" r="3.413"/>
	<circle cx="600.55" cy="443.65" r="5.075"/>
	<circle cx="582.21" cy="1060.4" r="3.67"/>
	<circle cx="554.8" cy="1110.8" r="5.057"/>
	<circle cx="707.76" cy="522.32" r="5.789"/>
	<circle cx="623.38" cy="517.56" r="5.789"/>
	<circle cx="591.59" cy="561.12" r="5.789"/>
	<circle cx="646.42" cy="679.05" r="5.789"/>
	<circle cx="631.15" cy="492.52" r="5.789"/>
	<circle cx="640.56" cy="1062.5" r="6.262"/>
	<circle cx="681.66" cy="543.58" r="4.497"/>
	<circle cx="255.06" cy="1579" r="6.892"/>
	<circle cx="851.46" cy="907.44" r="3.904"/>
	<circle cx="444.01" cy="175.76" r="3.413"/>
	<circle cx="617.24" cy="632.82" r="3.413"/>
	<circle cx="1070.3" cy="778.15" r="6.494"/>
	<circle cx="962.89" cy="957.67" r="6.39"/>
	<circle cx="465.33" cy="192.04" r="4.593"/>
	<circle cx="145.24" cy="1422.9" r="3.575"/>
	<circle cx="534.7" cy="383.56" r="4.004"/>
	<circle cx="525.03" cy="1200.4" r="5.465"/>
	<circle cx="838.86" cy="677.91" r="5.653"/>
	<circle cx="499.8" cy="337.49" r="6.873"/>
	<circle cx="669.19" cy="584.65" r="4.73"/>
	<circle cx="555.99" cy="538.67" r="6.013"/>
	<circle cx="500.55" cy="1267.8" r="4.283"/>
	<circle cx="503.56" cy="1252.5" r="4.283"/>
	<circle cx="493.54" cy="1249.2" r="4.283"/>
	<circle cx="478.52" cy="1305.8" r="4.283"/>
	<circle cx="515.07" cy="1395.2" r="4.283"/>
	<circle cx="534.6" cy="1412.2" r="4.283"/>
	<circle cx="656.8" cy="453.48" r="5.866"/>
	<circle cx="632.35" cy="727.87" r="3.413"/>
	<circle cx="1174.7" cy="729.76" r="4.482"/>
	<circle cx="488.67" cy="1263.2" r="3.502"/>
	<circle cx="1054" cy="917.19" r="3.685"/>
	<circle cx="979.88" cy="930.44" r="3.413"/>
	<circle cx="947.96" cy="547.45" r="3.413"/>
	<circle cx="423.92" cy="66.772" r="5.526"/>
	<circle cx="643.37" cy="1416" r="5.722"/>
	<circle cx="494.23" cy="1362" r="3.864"/>
	<circle cx="1162.3" cy="520.72" r="5.635"/>
	<circle cx="931.09" cy="677.14" r="7.141"/>
	<circle cx="865.9" cy="910.24" r="4.862"/>
	<circle cx="750.88" cy="669.58" r="4.437"/>
	<circle cx="478.97" cy="176.04" r="3.413"/>
	<circle cx="513.68" cy="233.55" r="3.413"/>
	<circle cx="862.83" cy="725.53" r="13.066"/>
	<circle cx="637.37" cy="1002.5" r="3.413"/>
	<circle cx="900.22" cy="742.66" r="6.741"/>
	<circle cx="494.47" cy="238.06" r="6.154"/>
	<circle cx="804.41" cy="689.02" r="4.641"/>
	<circle cx="429.04" cy="168.05" r="6.773"/>
	<circle cx="136.44" cy="1613" r="6.656"/>
	<circle cx="571.68" cy="657.43" r="4.314"/>
	<circle cx="899.04" cy="954.46" r="3.953"/>
	<circle cx="565.57" cy="602.64" r="3.899"/>
	<circle cx="730.68" cy="982.32" r="3.79"/>
	<circle cx="565.1" cy="1155.2" r="4.842"/>
	<circle cx="572.72" cy="385.38" r="6.008"/>
	<circle cx="651.31" cy="1440.4" r="3.965"/>
	<circle cx="639.79" cy="1442.9" r="3.965"/>
	<circle cx="449.3" cy="382.67" r="4.151"/>
	<circle cx="1226.2" cy="410.56" r="6.036"/>
	<circle cx="1050.8" cy="885.35" r="4.039"/>
	<circle cx="415.56" cy="296.26" r="4.778"/>
	<circle cx="628.76" cy="943.22" r="4.114"/>
	<circle cx="429.7" cy="357.42" r="4.338"/>
	<circle cx="1175.7" cy="399.13" r="3.724"/>
	<circle cx="1266.3" cy="558.01" r="3.517"/>
	<circle cx="903.98" cy="681.95" r="3.413"/>
	<circle cx="648.25" cy="347.3" r="4.134"/>
	<circle cx="136.77" cy="1428.7" r="3.98"/>
	<circle cx="777.45" cy="649.72" r="3.465"/>
	<circle cx="790.41" cy="516.15" r="4.403"/>
	<circle cx="1004.1" cy="593.53" r="3.413"/>
	<circle cx="701.77" cy="539.91" r="3.585"/>
	<circle cx="1147.5" cy="661.78" r="3.413"/>
	<circle cx="969.62" cy="809.32" r="3.413"/>
	<circle cx="1108.1" cy="628.71" r="3.98"/>
	<circle cx="227.21" cy="1588.2" r="3.413"/>
	<circle cx="553.08" cy="393.25" r="3.432"/>
	<circle cx="105.79" cy="1617.2" r="3.413"/>
	<circle cx="572.38" cy="619.93" r="3.413"/>
	<circle cx="943.24" cy="636.07" r="5.121"/>
	<circle cx="585.28" cy="1133.4" r="4.642"/>
	<circle cx="805.72" cy="897.76" r="3.413"/>
	<circle cx="454.58" cy="437.27" r="3.853"/>
	<circle cx="459.58" cy="424" r="3.853"/>
	<circle cx="597.29" cy="541.68" r="3.853"/>
	<circle cx="873.18" cy="897.4" r="4.58"/>
	<circle cx="731.89" cy="895.73" r="3.531"/>
	<circle cx="818.73" cy="992.48" r="3.413"/>
	<circle cx="745.95" cy="463.14" r="5.032"/>
	<circle cx="805.79" cy="464.14" r="5.032"/>
	<circle cx="734.68" cy="421.08" r="5.032"/>
	<circle cx="700.13" cy="470.65" r="5.032"/>
	<circle cx="649.05" cy="442.11" r="5.032"/>
	<circle cx="535.88" cy="396.29" r="5.032"/>
	<circle cx="557.91" cy="343.46" r="5.032"/>
	<circle cx="569.18" cy="355.23" r="5.032"/>
	<circle cx="625.52" cy="355.23" r="5.032"/>
	<circle cx="630.15" cy="1089.9" r="5.383"/>
	<circle cx="509" cy="1202.3" r="4.401"/>
	<circle cx="695.84" cy="620.1" r="3.927"/>
	<circle cx="684.94" cy="991.28" r="3.413"/>
	<circle cx="922.96" cy="612.31" r="3.413"/>
	<circle cx="718.09" cy="578.09" r="7.823"/>
	<circle cx="518.41" cy="1211.2" r="7.248"/>
	<circle cx="388.58" cy="259.45" r="4.83"/>
	<circle cx="391.34" cy="245.18" r="4.83"/>
	<circle cx="419.88" cy="145.28" r="4.83"/>
	<circle cx="429.65" cy="155.54" r="4.83"/>
	<circle cx="423.64" cy="118.74" r="4.83"/>
	<circle cx="421.63" cy="98.955" r="4.83"/>
	<circle cx="416.12" cy="88.189" r="4.83"/>
	<circle cx="418.88" cy="76.421" r="4.83"/>
	<circle cx="593.15" cy="439.49" r="3.413"/>
	<circle cx="1141.7" cy="488.56" r="3.779"/>
	<circle cx="144.85" cy="1618.5" r="3.413"/>
	<circle cx="627.45" cy="1002.1" r="5.301"/>
	<circle cx="548.54" cy="456.79" r="9.157"/>
	<circle cx="633.54" cy="343.26" r="3.413"/>
	<circle cx="688.48" cy="912.48" r="4.201"/>
	<circle cx="605.44" cy="1005.5" r="4.437"/>
	<circle cx="1008.9" cy="565.27" r="3.413"/>
	<circle cx="905.57" cy="753.04" r="4.94"/>
	<circle cx="749.03" cy="889.26" r="6.907"/>
	<circle cx="598.15" cy="720.72" r="7.769"/>
	<circle cx="689.05" cy="479.04" r="4.369"/>
	<circle cx="969.67" cy="545.63" r="4.811"/>
	<circle cx="962.41" cy="586.44" r="4.811"/>
	<circle cx="915.09" cy="604.72" r="4.811"/>
	<circle cx="914.84" cy="621.49" r="4.811"/>
	<circle cx="1016.7" cy="605.97" r="4.811"/>
	<circle cx="1006" cy="603.97" r="4.811"/>
	<circle cx="983.44" cy="602.46" r="4.811"/>
	<circle cx="974.93" cy="590.2" r="4.811"/>
	<circle cx="987.45" cy="570.92" r="4.811"/>
	<circle cx="784.93" cy="728.05" r="4.835"/>
	<circle cx="370.29" cy="209.68" r="3.638"/>
	<circle cx="690.24" cy="742.63" r="6.595"/>
	<circle cx="550.18" cy="440.82" r="3.616"/>
	<circle cx="584.99" cy="1066.9" r="3.413"/>
	<circle cx="645.95" cy="1103.1" r="3.862"/>
	<circle cx="618.48" cy="728.44" r="4.592"/>
	<circle cx="727.68" cy="1324.2" r="3.413"/>
	<circle cx="708.15" cy="1395.6" r="3.413"/>
	<circle cx="710.15" cy="1386.8" r="3.413"/>
	<circle cx="720.42" cy="1316.7" r="4.665"/>
	<circle cx="1135.9" cy="707.29" r="3.413"/>
	<circle cx="1032.5" cy="934.12" r="9.023"/>
	<circle cx="1096.1" cy="637.22" r="5.973"/>
	<circle cx="528.89" cy="378.95" r="3.413"/>
	<circle cx="471.03" cy="1294.2" r="3.958"/>
	<circle cx="726.11" cy="499.86" r="4.47"/>
	<circle cx="533.15" cy="357.04" r="4.357"/>
	<circle cx="717.62" cy="1049.2" r="4.072"/>
	<circle cx="847.1" cy="523.5" r="5.245"/>
	<circle cx="974.52" cy="879.38" r="5.045"/>
	<circle cx="1160.1" cy="848.33" r="5.045"/>
	<circle cx="1172.8" cy="836.31" r="5.045"/>
	<circle cx="1129" cy="813.03" r="5.045"/>
	<circle cx="1055.6" cy="710.87" r="5.045"/>
	<circle cx="1025.1" cy="770.96" r="5.045"/>
	<circle cx="1010.1" cy="793.25" r="5.045"/>
	<circle cx="1045.1" cy="675.82" r="5.045"/>
	<circle cx="1017.6" cy="667.56" r="5.045"/>
	<circle cx="1036.6" cy="636.76" r="5.045"/>
	<circle cx="1125.3" cy="527.59" r="5.045"/>
	<circle cx="1078.2" cy="529.84" r="5.045"/>
	<circle cx="1063.3" cy="460.45" r="5.045"/>
	<circle cx="1055.3" cy="477.73" r="5.045"/>
	<circle cx="1227.9" cy="574.41" r="5.045"/>
	<circle cx="1271.5" cy="547.12" r="5.045"/>
	<circle cx="1255.5" cy="556.14" r="5.045"/>
	<circle cx="1157.3" cy="495.79" r="5.045"/>
	<circle cx="1132.3" cy="452.73" r="5.045"/>
	<circle cx="1140.5" cy="472.01" r="4.044"/>
	<circle cx="1136.3" cy="461.74" r="4.044"/>
	<circle cx="1165.1" cy="613.72" r="4.044"/>
	<circle cx="1136.5" cy="526.59" r="4.044"/>
	<circle cx="1093" cy="531.35" r="4.044"/>
	<circle cx="1072.4" cy="547.62" r="4.044"/>
	<circle cx="1061.4" cy="513.57" r="4.044"/>
	<circle cx="1045.4" cy="514.07" r="4.044"/>
	<circle cx="1038.6" cy="577.17" r="4.044"/>
	<circle cx="1078.4" cy="639.26" r="4.044"/>
	<circle cx="1224.7" cy="563.14" r="4.044"/>
	<circle cx="1285.2" cy="525.34" r="4.044"/>
	<circle cx="1149.5" cy="484.02" r="4.044"/>
	<circle cx="1125" cy="421.43" r="4.044"/>
	<circle cx="1128.8" cy="411.41" r="4.044"/>
	<circle cx="1114.7" cy="416.92" r="4.044"/>
	<circle cx="1144.8" cy="403.9" r="4.044"/>
	<circle cx="835.32" cy="893.37" r="3.413"/>
	<circle cx="722.92" cy="920.99" r="7.017"/>
	<circle cx="715.22" cy="856.28" r="5.59"/>
	<circle cx="1168.3" cy="651.34" r="5.116"/>
	<circle cx="707.16" cy="533.44" r="4.383"/>
	<circle cx="677.54" cy="679.72" r="3.413"/>
	<circle cx="873.59" cy="674.58" r="3.413"/>
	<circle cx="862.18" cy="777.93" r="8.27"/>
	<circle cx="1040.7" cy="880.22" r="3.906"/>
	<circle cx="687.1" cy="658.43" r="3.413"/>
	<circle cx="949.22" cy="798.1" r="4.494"/>
	<circle cx="821.57" cy="637.88" r="3.7"/>
	<circle cx="844.67" cy="921.14" r="6.392"/>
	<circle cx="515.37" cy="303.51" r="4.493"/>
	<circle cx="889.54" cy="655.58" r="5.263"/>
	<circle cx="719.22" cy="1041.9" r="3.413"/>
	<circle cx="737.93" cy="667.16" r="5.275"/>
	<circle cx="665.6" cy="456.43" r="3.413"/>
	<circle cx="874.32" cy="690.91" r="7.176"/>
	<circle cx="494.32" cy="1259.2" r="3.413"/>
	<circle cx="519.02" cy="1181.8" r="5.746"/>
	<circle cx="567.42" cy="268.5" r="3.977"/>
	<circle cx="627.3" cy="1444.8" r="4.998"/>
	<circle cx="643.64" cy="1406.1" r="4.218"/>
	<circle cx="600.36" cy="478.26" r="5.713"/>
	<circle cx="913.86" cy="802.66" r="3.89"/>
	<circle cx="780.62" cy="522.34" r="5.395"/>
	<circle cx="812.43" cy="822.72" r="6.571"/>
	<circle cx="994.7" cy="953.51" r="3.908"/>
	<circle cx="972.9" cy="560.32" r="4.337"/>
	<circle cx="676.74" cy="373.51" r="3.764"/>
	<circle cx="1002" cy="944.66" r="4.082"/>
	<circle cx="1185.8" cy="808.24" r="4.018"/>
	<circle cx="673.07" cy="1393.4" r="3.931"/>
	<circle cx="550.04" cy="325.18" r="5.149"/>
	<circle cx="1192.9" cy="596.09" r="4.977"/>
	<circle cx="688.92" cy="752.55" r="3.413"/>
	<circle cx="1144.5" cy="856.79" r="6.371"/>
	<circle cx="838.86" cy="1009.7" r="3.413"/>
	<circle cx="795.05" cy="624.07" r="5.172"/>
	<circle cx="783.36" cy="487.46" r="5.223"/>
	<circle cx="556.75" cy="487.36" r="3.413"/>
	<circle cx="701.77" cy="551.05" r="4.817"/>
	<circle cx="703.76" cy="503.12" r="4.508"/>
	<circle cx="444.87" cy="278.68" r="3.413"/>
	<circle cx="552.08" cy="333" r="2.934"/>
	<circle cx="597.69" cy="1000.8" r="3.417"/>
	<circle cx="527.73" cy="215.94" r="3.77"/>
	<circle cx="50.401" cy="1473.3" r="2.793"/>
	<circle cx="1123.4" cy="731.84" r="4.462"/>
	<circle cx="447.2" cy="322.76" r="3.384"/>
	<circle cx="1110.4" cy="770.85" r="2.669"/>
	<circle cx="1104.3" cy="635.84" r="2.276"/>
	<circle cx="670.24" cy="543.29" r="2.62"/>
	<circle cx="1047.4" cy="922.09" r="4.488"/>
	<circle cx="554.37" cy="1178.1" r="3.579"/>
	<circle cx="250.72" cy="1571" r="2.276"/>
	<circle cx="769.24" cy="782.09" r="2.94"/>
	<circle cx="976.81" cy="953.56" r="5.643"/>
	<circle cx="1076.4" cy="784.42" r="2.276"/>
	<circle cx="722.78" cy="1358.4" r="5.98"/>
	<circle cx="706.51" cy="1366.6" r="5.229"/>
	<circle cx="407.86" cy="344" r="2.276"/>
	<circle cx="613.57" cy="569.94" r="6.673"/>
	<circle cx="903.43" cy="664.58" r="2.831"/>
	<circle cx="442" cy="1411.1" r="5.728"/>
	<circle cx="676.87" cy="419.68" r="2.276"/>
	<circle cx="783.39" cy="753.63" r="2.276"/>
	<circle cx="749.19" cy="721.01" r="4.057"/>
	<circle cx="541.19" cy="556.82" r="2.325"/>
	<circle cx="546.43" cy="334.3" r="2.866"/>
	<circle cx="195.76" cy="1441.8" r="2.931"/>
	<circle cx="204.52" cy="1448" r="2.931"/>
	<circle cx="371.97" cy="199.84" r="2.843"/>
	<circle cx="1002.4" cy="666.87" r="7.984"/>
	<circle cx="584.53" cy="501.14" r="5.146"/>
	<circle cx="1156.7" cy="668.23" r="2.319"/>
	<circle cx="557.88" cy="529.17" r="3.669"/>
	<circle cx="811.52" cy="1004.2" r="3.935"/>
	<circle cx="296.46" cy="1544" r="2.555"/>
	<circle cx="563.52" cy="1114.1" r="2.276"/>
	<circle cx="793.95" cy="888.98" r="6.758"/>
	<circle cx="1040.6" cy="918.29" r="3.287"/>
	<circle cx="696.34" cy="1402.7" r="7.921"/>
	<circle cx="715.61" cy="1376.4" r="7.921"/>
	<circle cx="461.72" cy="344.84" r="3.096"/>
	<circle cx="159.97" cy="1432.6" r="3.416"/>
	<circle cx="149.46" cy="1430.8" r="3.416"/>
	<circle cx="166.48" cy="1425.5" r="3.416"/>
	<circle cx="705.05" cy="544.76" r="2.276"/>
	<circle cx="399.16" cy="377.32" r="4.21"/>
	<circle cx="617.07" cy="1071.9" r="3.441"/>
	<circle cx="954.8" cy="892.39" r="5.406"/>
	<circle cx="438.7" cy="367.93" r="3.47"/>
	<circle cx="467.26" cy="239.85" r="5.146"/>
	<circle cx="260.57" cy="1587.4" r="2.276"/>
	<circle cx="988.66" cy="956.68" r="2.908"/>
	<circle cx="594.99" cy="531.67" r="3.574"/>
	<circle cx="578.83" cy="715.61" r="2.851"/>
	<circle cx="785" cy="690.84" r="7.864"/>
	<circle cx="1055.4" cy="889.62" r="2.276"/>
	<circle cx="781.78" cy="892.77" r="5.79"/>
	<circle cx="463.06" cy="112.02" r="5.074"/>
	<circle cx="540.73" cy="229.65" r="3.099"/>
	<circle cx="466.75" cy="122.47" r="3.517"/>
	<circle cx="452.98" cy="38.345" r="3.517"/>
	<circle cx="72.69" cy="1533.7" r="3.747"/>
	<circle cx="72.538" cy="1516.8" r="6.146"/>
	<circle cx="934.79" cy="770.41" r="2.276"/>
	<circle cx="511.14" cy="247.06" r="6.396"/>
	<circle cx="531.92" cy="240.3" r="6.396"/>
	<circle cx="491.36" cy="171.7" r="6.396"/>
	<circle cx="468.44" cy="432.84" r="3.678"/>
	<circle cx="734.28" cy="617.85" r="4.061"/>
	<circle cx="785.74" cy="744.9" r="3.795"/>
	<circle cx="898.51" cy="696.92" r="5.387"/>
	<circle cx="187.45" cy="1631.3" r="3.539"/>
	<circle cx="1133.9" cy="699.94" r="4.21"/>
	<circle cx="923.71" cy="770.3" r="5.155"/>
	<circle cx="558.53" cy="1395.3" r="2.276"/>
	<circle cx="536.27" cy="362.89" r="2.276"/>
	<circle cx="180.31" cy="1605.4" r="6.657"/>
	<circle cx="960.58" cy="669.96" r="2.31"/>
	<circle cx="976.52" cy="701.73" r="3.06"/>
	<circle cx="605.62" cy="515.01" r="3.512"/>
	<circle cx="885.37" cy="546.77" r="2.276"/>
	<circle cx="855.34" cy="654.44" r="7.432"/>
	<circle cx="995.42" cy="593.43" r="5.275"/>
	<circle cx="1134.7" cy="683.1" r="3.165"/>
	<circle cx="896.92" cy="984.79" r="3.803"/>
	<circle cx="560.1" cy="594.25" r="2.276"/>
	<circle cx="680.43" cy="1079.3" r="2.782"/>
	<circle cx="583.92" cy="290.63" r="2.276"/>
	<circle cx="559.29" cy="303.34" r="3.921"/>
	<circle cx="1055" cy="655.13" r="2.276"/>
	<circle cx="722.5" cy="472.63" r="2.276"/>
	<circle cx="625.12" cy="1116.2" r="2.276"/>
	<circle cx="657.22" cy="674.19" r="3.619"/>
	<circle cx="1095.5" cy="549.83" r="3.927"/>
	<circle cx="642.12" cy="1094.2" r="2.276"/>
	<circle cx="551.77" cy="240.04" r="2.361"/>
	<circle cx="1018" cy="878.71" r="3.997"/>
	<circle cx="656.18" cy="1436.4" r="2.276"/>
	<circle cx="968.2" cy="858.9" r="2.276"/>
	<circle cx="450.54" cy="431.79" r="2.276"/>
	<circle cx="673.19" cy="378.39" r="2.276"/>
	<circle cx="902.96" cy="690.69" r="2.276"/>
	<circle cx="141.48" cy="1598.3" r="5.517"/>
	<circle cx="1177" cy="618.24" r="6.286"/>
	<circle cx="758.7" cy="575.64" r="2.792"/>
	<circle cx="780.61" cy="577.38" r="7.123"/>
	<circle cx="728.27" cy="493.47" r="2.276"/>
	<circle cx="545.16" cy="406.94" r="4.756"/>
	<circle cx="1041.7" cy="564.45" r="6.718"/>
	<circle cx="438.5" cy="1419.9" r="3.616"/>
	<circle cx="826.76" cy="521.06" r="2.276"/>
	<circle cx="676" cy="1385" r="2.364"/>
	<circle cx="573.97" cy="1036.9" r="3.546"/>
	<circle cx="584.09" cy="685.61" r="7.253"/>
	<circle cx="551.55" cy="317.91" r="2.276"/>
	<circle cx="576.74" cy="1149.8" r="6.436"/>
	<circle cx="1005.1" cy="656.86" r="2.276"/>
	<circle cx="773.22" cy="603.91" r="2.603"/>
	<circle cx="586.25" cy="715.38" r="4.572"/>
	<circle cx="839.93" cy="515.54" r="5.47"/>
	<circle cx="512.01" cy="1342.5" r="2.276"/>
	<circle cx="753.21" cy="477.38" r="5.351"/>
	<circle cx="442.82" cy="474.82" r="2.72"/>
	<circle cx="941.87" cy="513.52" r="2.752"/>
	<circle cx="358.49" cy="1517.9" r="2.276"/>
	<circle cx="531.36" cy="654.48" r="2.392"/>
	<circle cx="669.3" cy="506.86" r="2.599"/>
	<circle cx="824.21" cy="757.28" r="3.263"/>
	<circle cx="495.17" cy="329.6" r="2.276"/>
	<circle cx="604.65" cy="505.52" r="2.276"/>
	<circle cx="702.06" cy="665.05" r="4.963"/>
	<circle cx="672.76" cy="656.53" r="4.963"/>
	<circle cx="711.32" cy="655.28" r="4.963"/>
	<circle cx="744.12" cy="653.03" r="4.963"/>
	<circle cx="835.76" cy="657.28" r="4.963"/>
	<circle cx="826" cy="674.06" r="4.963"/>
	<circle cx="795.2" cy="679.32" r="4.963"/>
	<circle cx="736.11" cy="729.14" r="4.963"/>
	<circle cx="712.57" cy="747.67" r="4.963"/>
	<circle cx="698.05" cy="755.44" r="4.963"/>
	<circle cx="662.74" cy="750.68" r="4.963"/>
	<circle cx="648.22" cy="753.43" r="4.963"/>
	<circle cx="610.92" cy="712.37" r="4.963"/>
	<circle cx="780.93" cy="664.8" r="4.963"/>
	<circle cx="812.47" cy="661.79" r="4.963"/>
	<circle cx="1426.8" cy="556.85" r="7.357"/>
	<circle cx="1051.1" cy="627" r="6.921"/>
	<circle cx="908.26" cy="871.37" r="4.018"/>
	<circle cx="764.58" cy="587.23" r="2.984"/>
	<circle cx="876.46" cy="927.98" r="2.276"/>
	<circle cx="612.26" cy="977.17" r="5.425"/>
	<circle cx="636.21" cy="721.35" r="2.604"/>
	<circle cx="541.14" cy="1380.5" r="4.538"/>
	<circle cx="968.74" cy="964.06" r="2.276"/>
	<circle cx="728.49" cy="1049.3" r="3.802"/>
	<circle cx="676.79" cy="902.54" r="5.236"/>
	<circle cx="554.56" cy="299.33" r="2.276"/>
	<circle cx="550.95" cy="371.13" r="2.276"/>
	<circle cx="681" cy="514.47" r="2.783"/>
	<circle cx="703.52" cy="739.16" r="4.702"/>
	<circle cx="924.88" cy="799.11" r="2.34"/>
	<circle cx="563.65" cy="399.06" r="2.276"/>
	<circle cx="716.18" cy="507.67" r="7.427"/>
	<circle cx="833.82" cy="820.47" r="3.985"/>
	<circle cx="339.31" cy="1550.4" r="2.374"/>
	<circle cx="1083.1" cy="729.56" r="4.455"/>
	<circle cx="823.04" cy="821.58" r="4.104"/>
	<circle cx="385.25" cy="233.36" r="5.955"/>
	<circle cx="990.33" cy="796.68" r="2.851"/>
	<circle cx="705.65" cy="637.85" r="2.643"/>
	<circle cx="976.24" cy="890.19" r="3.719"/>
	<circle cx="753.36" cy="986.71" r="9.89"/>
	<circle cx="1172.3" cy="500.17" r="5.262"/>
	<circle cx="1263.6" cy="431.57" r="5.262"/>
	<circle cx="1267.7" cy="486.9" r="5.262"/>
	<circle cx="1177.8" cy="605.84" r="5.262"/>
	<circle cx="1091.4" cy="440.58" r="5.262"/>
	<circle cx="1076.6" cy="446.84" r="5.262"/>
	<circle cx="450.8" cy="113" r="4.327"/>
	<circle cx="757.14" cy="569.5" r="3.538"/>
	<circle cx="1220.5" cy="417.38" r="2.892"/>
	<circle cx="754.96" cy="488" r="3.531"/>
	<circle cx="448.49" cy="273.82" r="2.648"/>
	<circle cx="560.34" cy="253.09" r="4.416"/>
	<circle cx="440.46" cy="124.57" r="2.276"/>
	<circle cx="75.993" cy="1541.4" r="4.652"/>
	<circle cx="517.29" cy="1200.4" r="2.276"/>
	<circle cx="152.5" cy="1596.5" r="2.484"/>
	<circle cx="1140.7" cy="664.14" r="2.511"/>
	<circle cx="682.17" cy="490.16" r="2.447"/>
	<circle cx="685.2" cy="486.54" r="2.276"/>
	<circle cx="874.82" cy="904.33" r="2.544"/>
	<circle cx="1178" cy="523.62" r="2.276"/>
	<circle cx="1056" cy="488.46" r="2.318"/>
	<circle cx="737.35" cy="876.37" r="4.622"/>
	<circle cx="932.46" cy="696.37" r="5.307"/>
	<circle cx="1021.9" cy="889.9" r="2.276"/>
	<circle cx="952" cy="945.59" r="2.276"/>
	<circle cx="472.03" cy="233.12" r="3.094"/>
	<circle cx="649.58" cy="357.63" r="2.276"/>
	<circle cx="939.23" cy="626.43" r="3.497"/>
	<circle cx="127.24" cy="1597.3" r="4.665"/>
	<circle cx="77.912" cy="1595.3" r="4.665"/>
	<circle cx="51.371" cy="1564.5" r="4.665"/>
	<circle cx="57.13" cy="1581" r="4.665"/>
	<circle cx="66.645" cy="1591.8" r="4.665"/>
	<circle cx="65.393" cy="1497.7" r="4.665"/>
	<circle cx="37.1" cy="1515.2" r="4.665"/>
	<circle cx="38.351" cy="1495.9" r="4.665"/>
	<circle cx="173.56" cy="1432.1" r="4.665"/>
	<circle cx="187.08" cy="1437.1" r="4.665"/>
	<circle cx="254.43" cy="1609.6" r="4.665"/>
	<circle cx="370.11" cy="1514.7" r="4.665"/>
	<circle cx="353.33" cy="1498.4" r="4.665"/>
	<circle cx="385.38" cy="1498.9" r="4.665"/>
	<circle cx="331.3" cy="1543.5" r="4.665"/>
	<circle cx="318.28" cy="1565.3" r="4.665"/>
	<circle cx="577.81" cy="504.28" r="2.276"/>
	<circle cx="536.13" cy="463.41" r="3.071"/>
	<circle cx="925.75" cy="634.32" r="2.276"/>
	<circle cx="947.16" cy="622.98" r="5.151"/>
	<circle cx="435.01" cy="247.2" r="2.276"/>
	<circle cx="1121.3" cy="725.42" r="2.276"/>
	<circle cx="727.09" cy="840.63" r="6.349"/>
	<circle cx="671.63" cy="409.99" r="2.276"/>
	<circle cx="583.8" cy="1126.7" r="2.276"/>
	<circle cx="582.3" cy="295.53" r="2.276"/>
	<circle cx="758.8" cy="471.52" r="2.33"/>
	<circle cx="700.46" cy="606.37" r="2.276"/>
	<circle cx="596.5" cy="1419.6" r="2.908"/>
	<circle cx="556.11" cy="315.43" r="2.912"/>
	<circle cx="490.19" cy="313.34" r="2.276"/>
	<circle cx="477.82" cy="578.12" r="7.554"/>
	<circle cx="1045.1" cy="556.14" r="2.276"/>
	<circle cx="492.72" cy="1351.2" r="5.88"/>
	<circle cx="478.52" cy="568.32" r="2.276"/>
	<circle cx="554.24" cy="1172.3" r="2.276"/>
	<circle cx="602.98" cy="386.03" r="2.276"/>
	<circle cx="544.09" cy="233.85" r="2.276"/>
	<circle cx="546.89" cy="361.93" r="4.358"/>
	<circle cx="904.66" cy="675.13" r="2.829"/>
	<circle cx="576.86" cy="1411.6" r="2.589"/>
	<circle cx="574.69" cy="1402.6" r="2.589"/>
	<circle cx="566.51" cy="1397.4" r="2.589"/>
	<circle cx="498.41" cy="1372" r="2.589"/>
	<circle cx="506.76" cy="1387" r="2.589"/>
	<circle cx="693.71" cy="1416.2" r="2.589"/>
	<circle cx="712.07" cy="1313.9" r="2.589"/>
	<circle cx="716.91" cy="1294.6" r="2.589"/>
	<circle cx="1097.3" cy="541.42" r="2.276"/>
	<circle cx="148.9" cy="1600.7" r="2.276"/>
	<circle cx="1169.5" cy="705.99" r="2.276"/>
	<circle cx="617.84" cy="343.11" r="6.235"/>
	<circle cx="779" cy="723.36" r="2.276"/>
	<circle cx="1292.3" cy="534.63" r="4.217"/>
	<circle cx="291.69" cy="1554.4" r="3.521"/>
	<circle cx="288.87" cy="1587.2" r="2.739"/>
	<circle cx="610.08" cy="552.36" r="10.166"/>
	<circle cx="1109.4" cy="786.56" r="2.276"/>
	<circle cx="688.76" cy="532.48" r="2.879"/>
	<circle cx="659.51" cy="529.36" r="2.276"/>
	<circle cx="719.92" cy="727.42" r="2.276"/>
	<circle cx="412.84" cy="1448" r="2.276"/>
	<circle cx="715.74" cy="1325.2" r="4.171"/>
	<circle cx="712.47" cy="1302.7" r="3.16"/>
	<circle cx="700.45" cy="1282.2" r="3.16"/>
	<circle cx="694.19" cy="1275.9" r="3.16"/>
	<circle cx="784.01" cy="806.8" r="3.047"/>
	<circle cx="688.08" cy="380.8" r="2.276"/>
	<circle cx="924.03" cy="732.35" r="4.232"/>
	<circle cx="460.46" cy="281.84" r="6.548"/>
	<circle cx="299.74" cy="1540.5" r="2.276"/>
	<circle cx="701.3" cy="496.8" r="2.276"/>
	<circle cx="115.75" cy="1442.2" r="4.344"/>
	<circle cx="155.62" cy="1423.2" r="3.005"/>
	<circle cx="1455.4" cy="564.73" r="5.357"/>
	<circle cx="1466.4" cy="567.6" r="4.48"/>
	<circle cx="1475.8" cy="570.48" r="3.854"/>
	<circle cx="1484.4" cy="572.9" r="3.354"/>
	<circle cx="1491.4" cy="574.66" r="2.519"/>
	<circle cx="1497" cy="576.41" r="2.018"/>
	<circle cx="1501.7" cy="577.75" r="1.684"/>
	<circle cx="1505.9" cy="578.83" r="1.351"/>
	<circle cx="1509.9" cy="580" r="1.351"/>
	<circle cx="1440.9" cy="560.97" r="5.983"/>
	<circle cx="1273.8" cy="504.78" r="2.276"/>
	<circle cx="588.71" cy="1072.5" r="3.328"/>
	<circle cx="518.78" cy="388.08" r="5.199"/>
	<circle cx="988.89" cy="703.49" r="7.392"/>
	<circle cx="950.44" cy="974.11" r="4.263"/>
	<circle cx="922.9" cy="960.09" r="4.263"/>
	<circle cx="961.96" cy="970.11" r="4.263"/>
	<circle cx="679.31" cy="745.22" r="2.276"/>
	<circle cx="1102.4" cy="727.26" r="6.473"/>
	<circle cx="676.15" cy="965.47" r="2.276"/>
	<circle cx="718.05" cy="1365.1" r="2.276"/>
	<circle cx="1059.6" cy="920.32" r="2.714"/>
	<circle cx="565.84" cy="682.68" r="6.186"/>
	<circle cx="671.55" cy="436.29" r="6.145"/>
	<circle cx="501.22" cy="536.61" r="3.268"/>
	<circle cx="437.72" cy="266.58" r="2.276"/>
	<circle cx="1139" cy="445.26" r="2.386"/>
	<circle cx="1144.8" cy="429.74" r="2.386"/>
	<circle cx="1099.5" cy="422.73" r="2.386"/>
	<circle cx="1090.4" cy="430.24" r="2.386"/>
	<circle cx="1099.7" cy="433.5" r="2.386"/>
	<circle cx="1099.7" cy="444.51" r="2.386"/>
	<circle cx="1119.5" cy="448.77" r="2.386"/>
	<circle cx="760.62" cy="465.93" r="2.276"/>
	<circle cx="783.41" cy="451.11" r="2.276"/>
	<circle cx="980.67" cy="698.38" r="2.276"/>
	<circle cx="820.86" cy="650.2" r="7.93"/>
	<circle cx="521.15" cy="1344.1" r="4.234"/>
	<circle cx="933.07" cy="551.24" r="2.296"/>
	<circle cx="832.75" cy="774.26" r="2.276"/>
	<circle cx="980.76" cy="961.91" r="3.59"/>
	<circle cx="892.74" cy="993.27" r="4.743"/>
	<circle cx="787.34" cy="528.57" r="3.769"/>
	<circle cx="730.68" cy="707.44" r="4.311"/>
	<circle cx="632.16" cy="408.66" r="6.537"/>
	<circle cx="437.52" cy="178.14" r="3.498"/>
	<circle cx="688.31" cy="976.35" r="3.116"/>
	<circle cx="799.26" cy="913.78" r="2.276"/>
	<circle cx="614.32" cy="687.83" r="2.898"/>
	<circle cx="577.97" cy="1070.6" r="4.534"/>
	<circle cx="544.6" cy="523.91" r="3.804"/>
	<circle cx="1024.8" cy="660.44" r="2.276"/>
	<circle cx="827.47" cy="744.21" r="2.276"/>
	<circle cx="752.63" cy="766.65" r="2.276"/>
	<circle cx="526.84" cy="655.65" r="2.276"/>
	<circle cx="811.74" cy="605.48" r="4.626"/>
	<circle cx="510.25" cy="1349.3" r="2.276"/>
	<circle cx="501.34" cy="285.12" r="3.4"/>
	<circle cx="1306.8" cy="533.86" r="2.276"/>
	<circle cx="635.36" cy="457.88" r="2.276"/>
</svg>